<svg xmlns="http://www.w3.org/2000/svg" xmlns:xlink="http://www.w3.org/1999/xlink" width="500" zoomAndPan="magnify" viewBox="0 0 375 374.999991" height="500" preserveAspectRatio="xMidYMid meet" version="1.0"><defs><clipPath id="44b64fd0a0"><path d="M 0 18.75 L 375 18.75 L 375 375 L 0 375 Z M 0 18.75 " clip-rule="nonzero"/></clipPath><clipPath id="5dacea7a92"><path d="M 187.5 18.75 C 83.945312 18.75 0 98.5 0 196.875 C 0 295.25 83.945312 375 187.5 375 C 291.054688 375 375 295.25 375 196.875 C 375 98.5 291.054688 18.75 187.5 18.75 Z M 187.5 18.75 " clip-rule="nonzero"/></clipPath><clipPath id="aaf4db592c"><path d="M 80 178 L 314.617188 178 L 314.617188 215 L 80 215 Z M 80 178 " clip-rule="nonzero"/></clipPath><clipPath id="4bb33f3a6f"><path d="M 125 88 L 314.617188 88 L 314.617188 126 L 125 126 Z M 125 88 " clip-rule="nonzero"/></clipPath><clipPath id="2cc1940d66"><path d="M 223 133 L 314.617188 133 L 314.617188 170 L 223 170 Z M 223 133 " clip-rule="nonzero"/></clipPath><clipPath id="a3a1bb941f"><path d="M 20.617188 178 L 63 178 L 63 215 L 20.617188 215 Z M 20.617188 178 " clip-rule="nonzero"/></clipPath><clipPath id="0bb4258d5e"><path d="M 134 222 L 314.617188 222 L 314.617188 259 L 134 259 Z M 134 222 " clip-rule="nonzero"/></clipPath><clipPath id="e5eb7b3e63"><path d="M 151 267 L 314.617188 267 L 314.617188 305 L 151 305 Z M 151 267 " clip-rule="nonzero"/></clipPath></defs><g clip-path="url(#44b64fd0a0)"><g clip-path="url(#5dacea7a92)"><path fill="#000000" d="M 0 18.75 L 374.339844 18.75 L 374.339844 375 L 0 375 Z M 0 18.75 " fill-opacity="1" fill-rule="nonzero"/></g></g><g clip-path="url(#aaf4db592c)"><path fill="#0091ff" d="M 416.640625 178.191406 L 227.152344 178.191406 L 219.058594 192.179688 L 200.324219 192.179688 L 192.230469 178.191406 C 185.253906 178.191406 97.828125 178.191406 90.851562 178.191406 L 80.386719 196.316406 L 90.851562 214.441406 C 97.828125 214.441406 185.253906 214.441406 192.230469 214.441406 L 200.324219 200.453125 L 219.058594 200.453125 L 227.152344 214.441406 L 416.640625 214.441406 C 418.726562 202.464844 418.726562 190.203125 416.640625 178.191406 Z M 416.640625 178.191406 " fill-opacity="1" fill-rule="nonzero"/></g><g clip-path="url(#4bb33f3a6f)"><path fill="#0091ff" d="M 156.484375 125.324219 L 164.574219 111.335938 L 183.3125 111.335938 L 191.402344 125.324219 L 391.179688 125.324219 C 353.632812 82.996094 311.519531 89.039062 260.742188 89.039062 L 191.402344 89.039062 L 183.3125 103.027344 L 164.574219 103.027344 L 156.484375 89.039062 L 135.554688 89.039062 L 125.089844 107.164062 L 135.554688 125.289062 L 156.484375 125.289062 Z M 156.484375 125.324219 " fill-opacity="1" fill-rule="nonzero"/></g><g clip-path="url(#2cc1940d66)"><path fill="#0091ff" d="M 281.636719 147.621094 L 262.898438 147.621094 L 254.804688 133.632812 L 233.875 133.632812 L 223.410156 151.757812 L 233.875 169.882812 L 254.804688 169.882812 L 262.898438 155.894531 L 281.636719 155.894531 L 289.726562 169.882812 L 414.878906 169.882812 C 411.496094 156.648438 405.636719 144.386719 397.832031 133.597656 L 289.726562 133.597656 Z M 281.636719 147.621094 " fill-opacity="1" fill-rule="nonzero"/></g><g clip-path="url(#a3a1bb941f)"><path fill="#0091ff" d="M 31.082031 178.191406 L 20.617188 196.316406 L 31.082031 214.476562 L 52.046875 214.476562 L 62.511719 196.316406 L 52.046875 178.191406 Z M 31.082031 178.191406 " fill-opacity="1" fill-rule="nonzero"/></g><path fill="#0091ff" d="M 163.640625 151.757812 L 174.105469 169.882812 L 195.070312 169.882812 L 205.539062 151.757812 L 195.070312 133.632812 L 174.105469 133.632812 Z M 163.640625 151.757812 " fill-opacity="1" fill-rule="nonzero"/><path fill="#0091ff" d="M 102.613281 267.304688 L 92.109375 285.46875 L 102.613281 303.59375 L 123.542969 303.59375 L 134.007812 285.46875 L 123.542969 267.304688 Z M 102.613281 267.304688 " fill-opacity="1" fill-rule="nonzero"/><g clip-path="url(#0bb4258d5e)"><path fill="#0091ff" d="M 192.230469 236.738281 L 173.496094 236.738281 L 165.402344 222.75 L 144.472656 222.75 L 134.007812 240.875 L 144.472656 259 L 165.402344 259 L 173.496094 245.007812 L 192.230469 245.007812 L 200.324219 259 L 397.796875 259 C 405.597656 248.210938 411.460938 235.945312 414.839844 222.710938 C 349.28125 222.710938 265.847656 222.710938 200.285156 222.710938 Z M 192.230469 236.738281 " fill-opacity="1" fill-rule="nonzero"/></g><g clip-path="url(#e5eb7b3e63)"><path fill="#0091ff" d="M 245.886719 281.332031 L 227.152344 281.332031 L 219.058594 267.34375 C 200.179688 267.34375 181.261719 267.34375 162.347656 267.34375 L 151.878906 285.46875 L 162.347656 303.59375 C 181.261719 303.59375 200.144531 303.59375 219.058594 303.59375 L 227.152344 289.601562 L 245.886719 289.601562 L 253.980469 303.59375 C 307.601562 303.59375 352.660156 310.75 391.179688 267.304688 L 253.980469 267.304688 Z M 245.886719 281.332031 " fill-opacity="1" fill-rule="nonzero"/></g></svg>