<svg xmlns="http://www.w3.org/2000/svg" xmlns:xlink="http://www.w3.org/1999/xlink" width="500" zoomAndPan="magnify" viewBox="0 0 375 374.999991" height="500" preserveAspectRatio="xMidYMid meet" version="1.0"><defs><g/><clipPath id="7abdb73cff"><path d="M 28 174 L 103.195312 174 L 103.195312 187 L 28 187 Z M 28 174 " clip-rule="nonzero"/></clipPath><clipPath id="35f82768cf"><path d="M 42 146 L 103.195312 146 L 103.195312 158 L 42 158 Z M 42 146 " clip-rule="nonzero"/></clipPath><clipPath id="3a0122023b"><path d="M 74 160 L 103.195312 160 L 103.195312 173 L 74 173 Z M 74 160 " clip-rule="nonzero"/></clipPath><clipPath id="3e2db1eff6"><path d="M 9.445312 174 L 23 174 L 23 187 L 9.445312 187 Z M 9.445312 174 " clip-rule="nonzero"/></clipPath><clipPath id="53697b5a4c"><path d="M 45 189 L 103.195312 189 L 103.195312 201 L 45 201 Z M 45 189 " clip-rule="nonzero"/></clipPath><clipPath id="ab6812e298"><path d="M 51 203 L 103.195312 203 L 103.195312 216 L 51 216 Z M 51 203 " clip-rule="nonzero"/></clipPath></defs><g clip-path="url(#7abdb73cff)"><path fill="#0091ff" d="M 136.019531 174.875 L 75.457031 174.875 L 72.871094 179.347656 L 66.882812 179.347656 L 64.296875 174.875 C 62.066406 174.875 34.121094 174.875 31.894531 174.875 L 28.546875 180.667969 L 31.894531 186.460938 C 34.121094 186.460938 62.066406 186.460938 64.296875 186.460938 L 66.882812 181.988281 L 72.871094 181.988281 L 75.457031 186.460938 L 136.019531 186.460938 C 136.6875 182.632812 136.6875 178.714844 136.019531 174.875 Z M 136.019531 174.875 " fill-opacity="1" fill-rule="nonzero"/></g><g clip-path="url(#35f82768cf)"><path fill="#0091ff" d="M 52.871094 157.976562 L 55.457031 153.507812 L 61.445312 153.507812 L 64.03125 157.976562 L 127.882812 157.976562 C 115.882812 144.449219 102.421875 146.378906 86.191406 146.378906 L 64.03125 146.378906 L 61.445312 150.851562 L 55.457031 150.851562 L 52.871094 146.378906 L 46.179688 146.378906 L 42.835938 152.171875 L 46.179688 157.96875 L 52.871094 157.96875 Z M 52.871094 157.976562 " fill-opacity="1" fill-rule="nonzero"/></g><g clip-path="url(#3a0122023b)"><path fill="#0091ff" d="M 92.871094 165.105469 L 86.882812 165.105469 L 84.296875 160.632812 L 77.605469 160.632812 L 74.261719 166.425781 L 77.605469 172.21875 L 84.296875 172.21875 L 86.882812 167.75 L 92.871094 167.75 L 95.457031 172.21875 L 135.457031 172.21875 C 134.375 167.988281 132.503906 164.070312 130.007812 160.621094 L 95.457031 160.621094 Z M 92.871094 165.105469 " fill-opacity="1" fill-rule="nonzero"/></g><g clip-path="url(#3e2db1eff6)"><path fill="#0091ff" d="M 12.789062 174.875 L 9.445312 180.667969 L 12.789062 186.472656 L 19.492188 186.472656 L 22.835938 180.667969 L 19.492188 174.875 Z M 12.789062 174.875 " fill-opacity="1" fill-rule="nonzero"/></g><path fill="#0091ff" d="M 55.15625 166.425781 L 58.503906 172.21875 L 65.203125 172.21875 L 68.546875 166.425781 L 65.203125 160.632812 L 58.503906 160.632812 Z M 55.15625 166.425781 " fill-opacity="1" fill-rule="nonzero"/><path fill="#0091ff" d="M 35.652344 203.359375 L 32.296875 209.164062 L 35.652344 214.957031 L 42.339844 214.957031 L 45.6875 209.164062 L 42.339844 203.359375 Z M 35.652344 203.359375 " fill-opacity="1" fill-rule="nonzero"/><g clip-path="url(#53697b5a4c)"><path fill="#0091ff" d="M 64.296875 193.585938 L 58.308594 193.585938 L 55.71875 189.117188 L 49.03125 189.117188 L 45.6875 194.910156 L 49.03125 200.703125 L 55.71875 200.703125 L 58.308594 196.230469 L 64.296875 196.230469 L 66.882812 200.703125 L 129.996094 200.703125 C 132.492188 197.253906 134.363281 193.335938 135.445312 189.105469 C 114.492188 189.105469 87.824219 189.105469 66.871094 189.105469 Z M 64.296875 193.585938 " fill-opacity="1" fill-rule="nonzero"/></g><g clip-path="url(#ab6812e298)"><path fill="#0091ff" d="M 81.445312 207.839844 L 75.457031 207.839844 L 72.871094 203.371094 C 66.835938 203.371094 60.789062 203.371094 54.742188 203.371094 L 51.398438 209.164062 L 54.742188 214.957031 C 60.789062 214.957031 66.824219 214.957031 72.871094 214.957031 L 75.457031 210.484375 L 81.445312 210.484375 L 84.03125 214.957031 C 101.167969 214.957031 115.570312 217.242188 127.882812 203.359375 L 84.03125 203.359375 Z M 81.445312 207.839844 " fill-opacity="1" fill-rule="nonzero"/></g><g fill="#ffffff" fill-opacity="1"><g transform="translate(203.689376, 183.898576)"><g><path d="M 16.375 -7.359375 C 16.375 -4.691406 15.742188 -2.726562 14.484375 -1.46875 C 13.234375 -0.21875 11.300781 0.40625 8.6875 0.40625 C 6.082031 0.40625 3.320312 0.269531 0.40625 0 L 0.40625 -5.53125 C 2.53125 -5.382812 4.710938 -5.3125 6.953125 -5.3125 C 7.578125 -5.3125 8.070312 -5.492188 8.4375 -5.859375 C 8.8125 -6.234375 9 -6.734375 9 -7.359375 L 9 -22.921875 L 3.6875 -22.921875 L 3.6875 -28.640625 L 16.375 -28.640625 Z M 16.375 -7.359375 "/></g></g></g><g fill="#ffffff" fill-opacity="1"><g transform="translate(230.69687, 183.898576)"><g><path d="M 1.59375 -5.9375 C 9.070312 -5.519531 14.132812 -5.3125 16.78125 -5.3125 C 17.40625 -5.3125 17.898438 -5.492188 18.265625 -5.859375 C 18.640625 -6.234375 18.828125 -6.734375 18.828125 -7.359375 L 18.828125 -11.046875 L 9.40625 -11.046875 C 6.539062 -11.046875 4.460938 -11.691406 3.171875 -12.984375 C 1.878906 -14.285156 1.234375 -16.367188 1.234375 -19.234375 L 1.234375 -20.46875 C 1.234375 -23.320312 1.878906 -25.394531 3.171875 -26.6875 C 4.460938 -27.988281 6.539062 -28.640625 9.40625 -28.640625 L 23.78125 -28.640625 L 23.78125 -22.921875 L 11.046875 -22.921875 C 9.410156 -22.921875 8.59375 -22.101562 8.59375 -20.46875 L 8.59375 -19.640625 C 8.59375 -18.003906 9.410156 -17.1875 11.046875 -17.1875 L 18.421875 -17.1875 C 21.085938 -17.1875 23.046875 -16.554688 24.296875 -15.296875 C 25.554688 -14.046875 26.1875 -12.082031 26.1875 -9.40625 L 26.1875 -7.359375 C 26.1875 -4.691406 25.554688 -2.726562 24.296875 -1.46875 C 23.046875 -0.21875 21.085938 0.40625 18.421875 0.40625 C 17.023438 0.40625 15.550781 0.378906 14 0.328125 L 10.234375 0.15625 C 7.453125 0.0195312 4.570312 -0.164062 1.59375 -0.40625 Z M 1.59375 -5.9375 "/></g></g></g><g fill="#ffffff" fill-opacity="1"><g transform="translate(135.153425, 209.527374)"><g><path d="M 0.71875 -2.6875 C 4.113281 -2.5 6.410156 -2.40625 7.609375 -2.40625 C 7.890625 -2.40625 8.113281 -2.488281 8.28125 -2.65625 C 8.445312 -2.832031 8.53125 -3.0625 8.53125 -3.34375 L 8.53125 -5.015625 L 4.265625 -5.015625 C 2.972656 -5.015625 2.03125 -5.304688 1.4375 -5.890625 C 0.851562 -6.484375 0.5625 -7.425781 0.5625 -8.71875 L 0.5625 -9.28125 C 0.5625 -10.582031 0.851562 -11.523438 1.4375 -12.109375 C 2.03125 -12.703125 2.972656 -13 4.265625 -13 L 10.78125 -13 L 10.78125 -10.390625 L 5.015625 -10.390625 C 4.265625 -10.390625 3.890625 -10.019531 3.890625 -9.28125 L 3.890625 -8.90625 C 3.890625 -8.164062 4.265625 -7.796875 5.015625 -7.796875 L 8.359375 -7.796875 C 9.566406 -7.796875 10.453125 -7.507812 11.015625 -6.9375 C 11.585938 -6.375 11.875 -5.484375 11.875 -4.265625 L 11.875 -3.34375 C 11.875 -2.125 11.585938 -1.226562 11.015625 -0.65625 C 10.453125 -0.09375 9.566406 0.1875 8.359375 0.1875 C 7.722656 0.1875 7.050781 0.175781 6.34375 0.15625 L 4.640625 0.078125 C 3.378906 0.015625 2.070312 -0.0703125 0.71875 -0.1875 Z M 0.71875 -2.6875 "/></g></g></g><g fill="#ffffff" fill-opacity="1"><g transform="translate(157.757434, 209.527374)"><g><path d="M 9.46875 -9.46875 C 9.46875 -10.207031 9.097656 -10.578125 8.359375 -10.578125 L 5.203125 -10.578125 C 4.453125 -10.578125 4.078125 -10.207031 4.078125 -9.46875 L 4.078125 -3.53125 C 4.078125 -2.78125 4.453125 -2.40625 5.203125 -2.40625 L 8.359375 -2.40625 C 9.097656 -2.40625 9.46875 -2.78125 9.46875 -3.53125 Z M 12.8125 -3.53125 C 12.8125 -2.226562 12.515625 -1.28125 11.921875 -0.6875 C 11.335938 -0.101562 10.394531 0.1875 9.09375 0.1875 L 4.453125 0.1875 C 3.148438 0.1875 2.207031 -0.101562 1.625 -0.6875 C 1.039062 -1.28125 0.75 -2.226562 0.75 -3.53125 L 0.75 -9.46875 C 0.75 -10.769531 1.039062 -11.710938 1.625 -12.296875 C 2.207031 -12.878906 3.148438 -13.171875 4.453125 -13.171875 L 9.09375 -13.171875 C 10.394531 -13.171875 11.335938 -12.878906 11.921875 -12.296875 C 12.515625 -11.710938 12.8125 -10.769531 12.8125 -9.46875 Z M 12.8125 -3.53125 "/></g></g></g><g fill="#ffffff" fill-opacity="1"><g transform="translate(181.474767, 209.527374)"><g><path d="M 4.453125 -2.59375 L 11.234375 -2.59375 L 11.234375 0 L 1.109375 0 L 1.109375 -13 L 4.453125 -13 Z M 4.453125 -2.59375 "/></g></g></g><g fill="#ffffff" fill-opacity="1"><g transform="translate(203.05823, 209.527374)"><g><path d="M 9.46875 -13 L 12.8125 -13 L 12.8125 -3.53125 C 12.8125 -2.226562 12.515625 -1.28125 11.921875 -0.6875 C 11.335938 -0.101562 10.394531 0.1875 9.09375 0.1875 L 4.828125 0.1875 C 3.523438 0.1875 2.578125 -0.101562 1.984375 -0.6875 C 1.398438 -1.28125 1.109375 -2.226562 1.109375 -3.53125 L 1.109375 -13 L 4.453125 -13 L 4.453125 -3.53125 C 4.453125 -2.78125 4.820312 -2.40625 5.5625 -2.40625 L 8.359375 -2.40625 C 9.097656 -2.40625 9.46875 -2.78125 9.46875 -3.53125 Z M 9.46875 -13 "/></g></g></g><g fill="#ffffff" fill-opacity="1"><g transform="translate(227.146683, 209.527374)"><g><path d="M 7.421875 0 L 4.078125 0 L 4.078125 -10.390625 L 0.1875 -10.390625 L 0.1875 -13 L 11.328125 -13 L 11.328125 -10.390625 L 7.421875 -10.390625 Z M 7.421875 0 "/></g></g></g><g fill="#ffffff" fill-opacity="1"><g transform="translate(248.822925, 209.527374)"><g><path d="M 7.234375 0 L 0.5625 0 L 0.5625 -2.59375 L 2.234375 -2.59375 L 2.234375 -10.390625 L 0.5625 -10.390625 L 0.5625 -13 L 7.234375 -13 L 7.234375 -10.390625 L 5.5625 -10.390625 L 5.5625 -2.59375 L 7.234375 -2.59375 Z M 7.234375 0 "/></g></g></g><g fill="#ffffff" fill-opacity="1"><g transform="translate(266.78807, 209.527374)"><g><path d="M 9.46875 -9.46875 C 9.46875 -10.207031 9.097656 -10.578125 8.359375 -10.578125 L 5.203125 -10.578125 C 4.453125 -10.578125 4.078125 -10.207031 4.078125 -9.46875 L 4.078125 -3.53125 C 4.078125 -2.78125 4.453125 -2.40625 5.203125 -2.40625 L 8.359375 -2.40625 C 9.097656 -2.40625 9.46875 -2.78125 9.46875 -3.53125 Z M 12.8125 -3.53125 C 12.8125 -2.226562 12.515625 -1.28125 11.921875 -0.6875 C 11.335938 -0.101562 10.394531 0.1875 9.09375 0.1875 L 4.453125 0.1875 C 3.148438 0.1875 2.207031 -0.101562 1.625 -0.6875 C 1.039062 -1.28125 0.75 -2.226562 0.75 -3.53125 L 0.75 -9.46875 C 0.75 -10.769531 1.039062 -11.710938 1.625 -12.296875 C 2.207031 -12.878906 3.148438 -13.171875 4.453125 -13.171875 L 9.09375 -13.171875 C 10.394531 -13.171875 11.335938 -12.878906 11.921875 -12.296875 C 12.515625 -11.710938 12.8125 -10.769531 12.8125 -9.46875 Z M 12.8125 -3.53125 "/></g></g></g><g fill="#ffffff" fill-opacity="1"><g transform="translate(290.505403, 209.527374)"><g><path d="M 12.4375 0 L 8.90625 0 L 4.453125 -7.796875 L 4.453125 0 L 1.109375 0 L 1.109375 -13 L 4.640625 -13 L 9.09375 -5.203125 L 9.09375 -13 L 12.4375 -13 Z M 12.4375 0 "/></g></g></g><g fill="#ffffff" fill-opacity="1"><g transform="translate(314.222737, 209.527374)"><g><path d="M 0.71875 -2.6875 C 4.113281 -2.5 6.410156 -2.40625 7.609375 -2.40625 C 7.890625 -2.40625 8.113281 -2.488281 8.28125 -2.65625 C 8.445312 -2.832031 8.53125 -3.0625 8.53125 -3.34375 L 8.53125 -5.015625 L 4.265625 -5.015625 C 2.972656 -5.015625 2.03125 -5.304688 1.4375 -5.890625 C 0.851562 -6.484375 0.5625 -7.425781 0.5625 -8.71875 L 0.5625 -9.28125 C 0.5625 -10.582031 0.851562 -11.523438 1.4375 -12.109375 C 2.03125 -12.703125 2.972656 -13 4.265625 -13 L 10.78125 -13 L 10.78125 -10.390625 L 5.015625 -10.390625 C 4.265625 -10.390625 3.890625 -10.019531 3.890625 -9.28125 L 3.890625 -8.90625 C 3.890625 -8.164062 4.265625 -7.796875 5.015625 -7.796875 L 8.359375 -7.796875 C 9.566406 -7.796875 10.453125 -7.507812 11.015625 -6.9375 C 11.585938 -6.375 11.875 -5.484375 11.875 -4.265625 L 11.875 -3.34375 C 11.875 -2.125 11.585938 -1.226562 11.015625 -0.65625 C 10.453125 -0.09375 9.566406 0.1875 8.359375 0.1875 C 7.722656 0.1875 7.050781 0.175781 6.34375 0.15625 L 4.640625 0.078125 C 3.378906 0.015625 2.070312 -0.0703125 0.71875 -0.1875 Z M 0.71875 -2.6875 "/></g></g></g><path stroke-linecap="round" transform="matrix(0, 0.75, -0.75, 0, 105.767635, 139.643986)" fill="none" stroke-linejoin="miter" d="M 2.500727 2.497472 L 107.391359 2.497472 " stroke="#0091ff" stroke-width="5" stroke-opacity="1" stroke-miterlimit="4"/></svg>